<svg
  width="481.05"
  height="115.501"
  viewBox="0 0 481.05 115.501"
  xmlns="http://www.w3.org/2000/svg"
>
  <g
    id="svgGroup"
    stroke-linecap="round"
    fill-rule="nonzero"
    font-size="9pt"
    stroke="none"
    fill="#000000"
    style="stroke: none; fill: #000000"
  >
    <path
      d="M 127.2 81.301 L 129.45 83.551 Q 126.15 91.051 121.5 97.201 Q 116.85 103.351 111.375 107.026 Q 105.9 110.701 99.75 110.701 Q 94.2 110.701 91.35 107.776 Q 88.5 104.851 88.5 100.501 Q 88.5 97.351 89.625 93.526 Q 90.75 89.701 91.8 85.726 Q 92.85 81.751 92.85 78.451 Q 92.85 74.851 91.275 73.351 Q 89.7 71.851 87.45 71.851 Q 83.7 71.851 80.7 74.851 Q 77.7 77.851 75.225 82.501 Q 72.75 87.151 70.65 92.326 Q 68.55 97.501 66.525 102.226 Q 64.5 106.951 62.25 109.876 Q 60 112.801 57.3 112.801 Q 54.15 112.801 52.65 107.776 Q 51.15 102.751 51.15 96.301 Q 51.15 89.251 53.55 79.501 Q 55.95 69.751 59.85 58.876 Q 63.75 48.001 68.625 37.576 Q 73.5 27.151 78.675 18.676 Q 83.85 10.201 88.5 5.101 Q 93.15 0.001 96.6 0.001 Q 99.6 0.001 101.1 3.376 Q 102.6 6.751 102.6 10.201 Q 102.6 14.401 100.725 20.326 Q 98.85 26.251 95.55 33.001 Q 92.25 39.751 87.825 46.351 Q 83.4 52.951 78.3 58.351 Q 73.2 63.751 67.65 67.051 Q 65.85 71.851 64.65 76.576 Q 63.45 81.301 62.925 85.651 Q 62.4 90.001 62.4 93.901 Q 62.4 94.951 62.475 95.926 Q 62.55 96.901 62.7 97.651 Q 63.75 94.951 65.475 90.526 Q 67.2 86.101 69.675 81.151 Q 72.15 76.201 75.525 71.701 Q 78.9 67.201 83.25 64.426 Q 87.6 61.651 92.85 61.651 Q 97.65 61.651 100.425 63.826 Q 103.2 66.001 104.325 69.301 Q 105.45 72.601 105.45 76.051 Q 105.45 80.701 103.875 84.976 Q 102.3 89.251 100.725 93.076 Q 99.15 96.901 99.15 100.351 Q 99.15 103.051 100.35 104.251 Q 101.55 105.451 103.35 105.451 Q 106.65 105.451 111.075 102.151 Q 115.5 98.851 119.775 93.376 Q 124.05 87.901 127.2 81.301 Z M 408.15 81.751 L 410.55 84.151 Q 407.1 92.251 402.075 98.401 Q 397.05 104.551 391.5 108.076 Q 385.95 111.601 380.4 111.601 Q 374.4 111.601 371.55 107.926 Q 368.7 104.251 368.4 99.901 Q 368.4 99.451 368.475 98.926 Q 368.55 98.401 368.55 97.951 Q 362.4 105.601 357.3 109.876 Q 352.2 114.151 346.5 114.151 Q 341.7 114.151 338.175 110.926 Q 334.65 107.701 334.65 101.251 Q 334.65 95.851 337.05 89.701 Q 339.45 83.551 343.65 77.551 Q 347.85 71.551 353.25 66.601 Q 358.65 61.651 364.725 58.651 Q 370.8 55.651 376.8 55.651 Q 383.1 55.651 387.375 58.876 Q 391.65 62.101 391.65 67.351 Q 391.65 71.401 389.1 73.051 Q 386.55 74.701 382.8 74.101 Q 383.1 72.901 383.325 71.476 Q 383.55 70.051 383.55 68.701 Q 383.55 65.551 382.2 63.151 Q 380.85 60.751 376.95 60.751 Q 372.75 60.751 368.4 63.601 Q 364.05 66.451 360 71.101 Q 355.95 75.751 352.8 81.301 Q 349.65 86.851 347.85 92.251 Q 346.05 97.651 346.05 101.851 Q 346.05 106.951 349.8 106.951 Q 353.25 106.951 357.375 103.651 Q 361.5 100.351 365.775 95.251 Q 370.05 90.151 373.95 84.826 Q 377.85 79.501 380.7 75.451 Q 381.3 74.701 381.75 74.701 Q 382.5 74.851 384.15 75.376 Q 385.8 75.901 387.15 76.801 Q 388.5 77.701 388.5 79.201 Q 388.5 80.701 387.15 83.026 Q 385.8 85.351 384.15 88.201 Q 382.5 91.051 381.15 93.901 Q 379.8 96.751 379.8 99.451 Q 379.8 101.401 380.925 103.276 Q 382.05 105.151 384.6 105.151 Q 388.35 105.151 394.875 99.676 Q 401.4 94.201 408.15 81.751 Z M 234.15 81.751 L 236.4 83.701 Q 233.25 91.051 229.35 97.051 Q 225.45 103.051 220.65 106.576 Q 215.85 110.101 209.85 110.101 Q 204.3 110.101 201.375 107.251 Q 198.45 104.401 198.45 100.051 Q 198.45 96.901 199.5 93.526 Q 200.55 90.151 201.6 86.626 Q 202.65 83.101 202.65 79.801 Q 202.65 76.201 201 74.851 Q 199.35 73.501 197.1 73.501 Q 192.6 73.501 187.875 77.251 Q 183.15 81.001 178.65 86.626 Q 174.15 92.251 170.25 98.401 Q 166.35 104.551 163.5 109.351 Q 160.8 109.351 158.4 108.451 Q 156 107.551 154.35 105.301 Q 154.5 104.551 156.075 100.726 Q 157.65 96.901 159.6 91.426 Q 161.55 85.951 163.125 80.101 Q 164.7 74.251 164.7 69.301 Q 165.75 68.251 167.85 67.051 Q 169.95 65.851 172.2 65.851 Q 177 65.851 177 70.201 Q 177 72.151 176.1 76.426 Q 175.2 80.701 173.7 85.801 Q 177.6 80.251 182.4 75.076 Q 187.2 69.901 192.45 66.601 Q 197.7 63.301 203.1 63.301 Q 209.25 63.301 212.175 67.576 Q 215.1 71.851 215.1 77.101 Q 215.1 81.601 213.6 85.576 Q 212.1 89.551 210.675 93.076 Q 209.25 96.601 209.25 100.051 Q 209.25 102.601 210.375 103.726 Q 211.5 104.851 213.15 104.851 Q 216.75 104.851 220.575 101.326 Q 224.4 97.801 227.925 92.476 Q 231.45 87.151 234.15 81.751 Z M 478.8 81.751 L 481.05 83.701 Q 477.9 91.051 474 97.051 Q 470.1 103.051 465.3 106.576 Q 460.5 110.101 454.5 110.101 Q 448.95 110.101 446.025 107.251 Q 443.1 104.401 443.1 100.051 Q 443.1 96.901 444.15 93.526 Q 445.2 90.151 446.25 86.626 Q 447.3 83.101 447.3 79.801 Q 447.3 76.201 445.65 74.851 Q 444 73.501 441.75 73.501 Q 437.25 73.501 432.525 77.251 Q 427.8 81.001 423.3 86.626 Q 418.8 92.251 414.9 98.401 Q 411 104.551 408.15 109.351 Q 405.45 109.351 403.05 108.451 Q 400.65 107.551 399 105.301 Q 399.15 104.551 400.725 100.726 Q 402.3 96.901 404.25 91.426 Q 406.2 85.951 407.775 80.101 Q 409.35 74.251 409.35 69.301 Q 410.4 68.251 412.5 67.051 Q 414.6 65.851 416.85 65.851 Q 421.65 65.851 421.65 70.201 Q 421.65 72.151 420.75 76.426 Q 419.85 80.701 418.35 85.801 Q 422.25 80.251 427.05 75.076 Q 431.85 69.901 437.1 66.601 Q 442.35 63.301 447.75 63.301 Q 453.9 63.301 456.825 67.576 Q 459.75 71.851 459.75 77.101 Q 459.75 81.601 458.25 85.576 Q 456.75 89.551 455.325 93.076 Q 453.9 96.601 453.9 100.051 Q 453.9 102.601 455.025 103.726 Q 456.15 104.851 457.8 104.851 Q 461.4 104.851 465.225 101.326 Q 469.05 97.801 472.575 92.476 Q 476.1 87.151 478.8 81.751 Z M 289.35 82.201 L 291.75 84.001 Q 288.6 91.351 283.125 94.726 Q 277.65 98.101 272.55 98.101 Q 270.6 98.101 268.65 97.726 Q 266.7 97.351 265.05 96.601 Q 259.95 102.901 253.575 107.401 Q 247.2 111.901 240.75 111.901 Q 234.15 111.901 231.6 107.626 Q 229.05 103.351 229.05 97.951 Q 229.05 93.151 230.55 88.201 Q 232.05 83.251 234.6 78.901 Q 237.15 74.551 240.3 71.851 Q 243.45 69.151 246.75 69.151 Q 247.65 69.151 248.925 69.526 Q 250.2 69.901 250.8 70.501 Q 249.15 72.301 247.275 75.601 Q 245.4 78.901 243.825 82.726 Q 242.25 86.551 241.275 90.376 Q 240.3 94.201 240.3 97.351 Q 240.3 100.801 241.5 102.751 Q 242.7 104.701 245.4 104.701 Q 248.4 104.701 252.525 101.476 Q 256.65 98.251 260.4 93.601 Q 255.75 89.551 253.575 84.226 Q 251.4 78.901 251.4 72.151 Q 251.4 68.401 253.05 64.201 Q 254.7 60.001 258.15 57.151 Q 261.6 54.301 267.15 54.301 Q 273.45 54.301 275.925 57.826 Q 278.4 61.351 278.4 66.301 Q 278.4 71.851 275.475 78.826 Q 272.55 85.801 268.5 92.101 Q 270.6 93.301 273.15 93.301 Q 275.4 93.301 278.55 92.251 Q 281.7 91.201 284.625 88.726 Q 287.55 86.251 289.35 82.201 Z M 53.55 81.601 L 56.25 84.001 Q 52.65 93.001 46.425 100.126 Q 40.2 107.251 32.625 111.376 Q 25.05 115.501 17.55 115.501 Q 9.9 115.501 4.95 110.626 Q 0 105.751 0 95.851 Q 0 88.501 2.925 81.451 Q 5.85 74.401 10.65 68.701 Q 15.45 63.001 21.3 59.701 Q 27.15 56.401 33.15 56.401 Q 39.45 56.401 42.075 59.701 Q 44.7 63.001 44.7 67.051 Q 44.7 71.401 42.675 75.151 Q 40.65 78.901 37.2 78.901 Q 34.35 78.901 32.55 76.201 Q 34.35 75.151 36 72.001 Q 37.65 68.851 37.65 64.801 Q 37.65 63.301 37.05 62.551 Q 36.45 61.801 34.65 61.801 Q 30.75 61.801 26.625 65.251 Q 22.5 68.701 18.9 74.176 Q 15.3 79.651 13.05 85.651 Q 10.8 91.651 10.8 96.901 Q 10.8 101.251 13.05 104.851 Q 15.3 108.451 21.6 108.451 Q 27.45 108.451 33.525 105.151 Q 39.6 101.851 45 95.851 Q 50.4 89.851 53.55 81.601 Z M 307.65 60.151 L 307.65 58.501 Q 307.65 52.651 309.6 50.251 Q 311.55 47.851 314.1 47.851 Q 315.75 47.851 316.5 48.676 Q 317.25 49.501 317.25 50.551 Q 317.25 51.301 316.875 52.651 Q 316.5 54.001 316.5 56.251 Q 316.5 60.901 318.6 66.676 Q 320.7 72.451 322.8 78.901 Q 324.9 85.351 324.9 92.101 Q 324.9 94.051 324.75 95.626 Q 324.6 97.201 324.15 98.701 Q 329.1 97.651 333.6 93.676 Q 338.1 89.701 342.3 81.751 L 343.95 83.101 Q 341.1 91.651 335.625 96.526 Q 330.15 101.401 323.1 102.451 Q 320.7 108.751 315.3 111.751 Q 309.9 114.751 303.15 114.751 Q 295.8 114.751 291.375 111.676 Q 286.95 108.601 285.075 103.951 Q 283.2 99.301 283.2 94.501 Q 283.2 90.151 284.4 87.751 Q 285.6 85.351 287.4 84.151 Q 289.2 82.951 290.775 82.351 Q 292.35 81.751 292.95 81.151 Q 297 76.801 300.9 71.551 Q 304.8 66.301 307.65 60.151 Z M 163.65 81.751 L 165.6 83.851 Q 160.65 97.051 152.475 104.251 Q 144.3 111.451 135.15 111.451 Q 128.85 111.451 125.7 107.626 Q 122.55 103.801 122.55 98.251 Q 122.55 94.801 123.75 89.551 Q 124.95 84.301 127.125 78.526 Q 129.3 72.751 132.15 67.651 Q 135 62.551 138.225 59.326 Q 141.45 56.101 144.6 56.101 Q 146.25 56.101 147.525 57.151 Q 148.8 58.201 148.8 60.151 Q 148.8 62.101 146.475 66.001 Q 144.15 69.901 141 75.076 Q 137.85 80.251 135.525 85.801 Q 133.2 91.351 133.2 96.451 Q 133.2 101.401 135 103.051 Q 136.8 104.701 140.25 104.701 Q 145.35 104.701 151.275 99.601 Q 157.2 94.501 163.65 81.751 Z M 70.5 58.651 Q 73.2 50.251 77.1 42.151 Q 81 34.051 84.975 27.601 Q 88.95 21.151 91.95 17.326 Q 94.95 13.501 95.85 13.501 Q 96 13.501 96.075 13.651 Q 96.15 13.801 96.15 14.101 Q 96 16.351 94.575 20.401 Q 93.15 24.451 90.75 29.551 Q 88.35 34.651 85.125 40.051 Q 81.9 45.451 78.15 50.326 Q 74.4 55.201 70.5 58.651 Z M 313.2 98.401 Q 306.9 96.901 302.175 93.151 Q 297.45 89.401 295.2 85.051 Q 298.35 81.751 302.025 76.426 Q 305.7 71.101 308.7 66.001 Q 310.2 72.751 311.85 79.426 Q 313.5 86.101 313.65 93.001 Q 313.65 94.201 313.575 95.701 Q 313.5 97.201 313.2 98.401 Z M 263.85 89.101 Q 261.6 86.401 260.475 81.976 Q 259.35 77.551 259.35 73.951 Q 259.35 67.651 262.35 63.526 Q 265.35 59.401 268.35 59.401 Q 270.3 59.401 271.425 61.126 Q 272.55 62.851 272.55 66.601 Q 272.55 71.701 270.075 77.776 Q 267.6 83.851 263.85 89.101 Z M 302.55 108.601 Q 296.85 108.601 293.925 104.176 Q 291 99.751 291 94.651 Q 291 90.601 293.4 90.151 Q 296.1 93.901 300.975 97.426 Q 305.85 100.951 312.15 102.301 Q 310.5 105.751 307.8 107.176 Q 305.1 108.601 302.55 108.601 Z M 153 43.351 Q 150.3 43.351 148.125 42.001 Q 145.95 40.651 145.95 37.951 Q 145.95 34.351 149.775 31.876 Q 153.6 29.401 157.65 29.401 Q 160.2 29.401 161.85 30.601 Q 163.5 31.801 163.5 34.651 Q 163.5 37.801 160.2 40.576 Q 156.9 43.351 153 43.351 Z"
    />
  </g>
</svg>
