<svg width="482" height="116" viewBox="0 0 482 116" fill="none" xmlns="http://www.w3.org/2000/svg">
<path d="M37 75.5C39.022 76.3694 45.5 65 36.5 59.5C27.5 54 2.50002 81.5 6.00001 98C9.5 114.5 26 115 39.5 104C53 93 53.5 78 69.5 63C85.5 48 109 14.5 96.5 8.5C84 2.5 44.7478 103.249 59 108C62.5 109.167 64.8297 99.4064 66.5 94.5C74.5 71 83.5 63.5 95.5 68C97.7584 68.8469 100 71 100 79C100 87 88.5 106.5 100 108C102.412 108.315 116 111 143.5 61.5C150.315 49.2322 113.5 105.5 135 108C156.5 110.5 170 80 170 72C170 64 164.5 102.5 160.5 105C156.5 107.5 166 97.5 173.5 89C174.855 87.4643 195 61.5 206 69C217 76.5 194.5 102.5 209.5 107C213.061 108.068 224.049 107 239 78.5C253.951 50 221.5 108.89 242 108.5C247.925 108.387 264 103.5 274 75C284 46.5 253.615 56.5 256 72C256.778 77.058 256 97 276.5 95.5C282.682 95.0477 305 76 310 58.5C315 41 309.214 59 315.5 71C317.791 75.3746 325 104.136 310 110.5C303.579 113.224 296.5 114.5 289 103C285.881 98.2177 286.5 90.5 290.5 87.5C292.084 86.3117 294.5 89.5 301 95.5C303.754 98.0419 329 111.5 342.5 84M387 71C387 71 389.5 57.0556 376.5 58.5C363.5 59.9444 349.5 74 345 83C340.5 92 337.5 107.5 347 110.5C350.617 111.642 357.5 109.5 365.5 99C373.5 88.5 380 83.5 382 80.5C383.034 78.9492 366 109 382 109C389.463 109 411.5 90.5 414.5 74.5C417.5 58.5 403.5 106.5 405 106.5C406.5 106.5 413 94.5 420 87C423.958 82.7593 432.562 68.6025 446 69C453.227 69.2138 455 78 452 88.5C450.281 94.5177 445 104.5 454 107.5C458.829 109.11 465.055 105.267 470 99C474.945 92.7326 479 84 479 84M152 38L157 35" stroke="black"/>
</svg>
