<svg xmlns="http://www.w3.org/2000/svg" width="32.77" height="32" viewBox="0 0 256 250" role="img" aria-label="Adobe Lightroom">
  <rect width="256" height="249.6" fill="#001E36" rx="42.5"/>
  <path fill="#31A8FF" d="M61.9 175.1V65.2c0-.7.3-1.1 1.1-1.1h20.9c.8 0 1.2.4 1.2 1.1v89.3h44.4c.7 0 1.1.4 1.1 1.1v18.3c0 .8-.4 1.2-1.1 1.2zm86.3 0c-.8 0-1.2-.4-1.2-1.2v-79c0-.8.4-1.2 1.2-1.2h18.2c.8 0 1.2.4 1.2 1.2v7.7c3.1-4.1 6.8-7.1 11.1-9.1a35.8 35.8 0 0 1 15.2-3c.8 0 1.2.4 1.2 1.2v20.2c0 .8-.4 1.2-1.2 1.2c-6.5-.4-12.1.6-16.8 3a22.5 22.5 0 0 0-9.4 9v48.8c0 .8-.4 1.2-1.2 1.2z"/>
</svg>
