<svg width="200" height="200" viewBox="0 0 200 200" xmlns="http://www.w3.org/2000/svg">
  <g transform="rotate(-31 100 100)">
    
    <circle cx="100" cy="100" r="91.5" fill="none" stroke="#93c275" stroke-width="13"/>
    <circle cx="100" cy="100" r="85" fill="#ffffff"/>

    <g stroke="#ffffff" stroke-width="8">
      <path d="M 100,100 L 45.5,45.5 A 79,79 0 0 1 100,21 Z" fill="#e63946"/>
      <path d="M 100,100 L 100,21 A 79,79 0 0 1 154.5,45.5 Z" fill="#f5a25d"/>
      <path d="M 100,100 L 154.5,45.5 A 79,79 0 0 1 179,100 Z" fill="#a8d582"/>
      <path d="M 100,100 L 179,100 A 79,79 0 0 1 154.5,154.5 Z" fill="#77cdd6"/>
      <path d="M 100,100 L 154.5,154.5 A 79,79 0 0 1 100,179 Z" fill="#45a2da"/>
      <path d="M 100,100 L 100,179 A 79,79 0 0 1 45.5,154.5 Z" fill="#8e6aa8"/>
      <path d="M 100,100 L 45.5,154.5 A 79,79 0 0 1 21,100 Z" fill="#d45d9a"/>
      <path d="M 100,100 L 21,100 A 79,79 0 0 1 45.5,45.5 Z" fill="#e4627d"/>
    </g>
  </g>
</svg>